<?xml version="1.0" encoding="iso-8859-1"?>
<!-- Generator: Adobe Illustrator 17.1.0, SVG Export Plug-In . SVG Version: 6.00 Build 0)  -->
<!DOCTYPE svg PUBLIC "-//W3C//DTD SVG 1.1//EN" "http://www.w3.org/Graphics/SVG/1.1/DTD/svg11.dtd">
<svg version="1.1" id="Capa_1" xmlns="http://www.w3.org/2000/svg" xmlns:xlink="http://www.w3.org/1999/xlink" x="0px" y="0px"
	 viewBox="0 0 511.001 511.001" style="enable-background:new 0 0 511.001 511.001;" xml:space="preserve">
<g>
	<path d="M87.5,416.001c-1.97,0-3.91,0.8-5.3,2.2c-1.4,1.39-2.2,3.33-2.2,5.3s0.8,3.91,2.2,5.3c1.39,1.4,3.32,2.2,5.3,2.2
		c1.97,0,3.91-0.8,5.3-2.2c1.4-1.39,2.2-3.33,2.2-5.3s-0.8-3.91-2.2-5.3C91.41,416.8,89.47,416.001,87.5,416.001z"/>
	<path d="M498.197,338.197l-58.372,58.372c-4.764-2.898-10.353-4.569-16.325-4.569c-5.972,0-11.561,1.67-16.325,4.568
		l-12.758-12.758c7.285-12.232,5.244-28.694-5.564-39.501l-29.136-29.136C343.779,299.235,335,278.042,335,255.501
		c0-22.542,8.778-43.734,24.717-59.674l29.136-29.136c10.808-10.808,12.849-27.27,5.564-39.501l12.758-12.758
		c4.764,2.898,10.353,4.569,16.325,4.569c5.972,0,11.561-1.671,16.325-4.569l58.372,58.372c1.464,1.465,3.384,2.197,5.303,2.197
		s3.839-0.732,5.303-2.197c2.929-2.929,2.929-7.678,0-10.606l-58.372-58.372C453.33,99.062,455,93.472,455,87.501
		c0-17.369-14.131-31.5-31.5-31.5c-5.972,0-11.561,1.67-16.325,4.568L348.804,2.197c-2.928-2.929-7.677-2.929-10.606,0
		s-2.929,7.678,0,10.606l58.372,58.372C393.671,75.939,392,81.528,392,87.501c0,5.972,1.671,11.561,4.569,16.325l-12.746,12.746
		c-4.874-2.957-10.503-4.57-16.323-4.57c-8.417,0-16.327,3.278-22.272,9.228l-30.055,30.055
		c-15.939,15.939-37.132,24.718-59.673,24.718s-43.734-8.778-59.673-24.718l-30.052-30.052c-5.947-5.952-13.858-9.23-22.274-9.23
		c-5.821,0-11.449,1.613-16.323,4.57l-12.746-12.746C117.33,99.062,119,93.472,119,87.501c0-5.972-1.671-11.562-4.569-16.325
		l58.372-58.372c2.929-2.929,2.929-7.678,0-10.606c-2.929-2.929-7.678-2.929-10.606,0l-58.372,58.372
		c-4.764-2.898-10.353-4.568-16.325-4.568c-17.369,0-31.5,14.131-31.5,31.5c0,5.972,1.671,11.561,4.569,16.324L2.197,162.197
		c-2.929,2.929-2.929,7.678,0,10.606C3.661,174.268,5.581,175,7.5,175c1.919,0,3.839-0.732,5.303-2.197l58.372-58.372
		c4.764,2.898,10.353,4.569,16.325,4.569s11.561-1.671,16.325-4.569l12.758,12.758c-7.286,12.232-5.244,28.694,5.564,39.501
		l29.136,29.136C167.222,211.766,176,232.959,176,255.501c0,22.542-8.778,43.734-24.717,59.673l-29.136,29.136
		c-10.807,10.808-12.849,27.269-5.564,39.501l-12.758,12.758c-4.764-2.898-10.353-4.568-16.325-4.568
		c-5.972,0-11.561,1.67-16.325,4.569l-58.372-58.372c-2.929-2.929-7.678-2.929-10.606,0c-2.929,2.929-2.929,7.677,0,10.606
		l58.372,58.372C57.671,411.94,56,417.528,56,423.501c0,17.369,14.131,31.5,31.5,31.5c5.972,0,11.561-1.671,16.324-4.569
		l58.372,58.372c1.464,1.464,3.384,2.197,5.303,2.197s3.839-0.732,5.303-2.197c2.929-2.929,2.929-7.677,0-10.606l-58.372-58.372
		c2.898-4.764,4.569-10.353,4.569-16.325c0-5.972-1.671-11.562-4.569-16.325l12.746-12.745c4.874,2.956,10.503,4.57,16.323,4.57
		c8.417,0,16.327-3.278,22.272-9.229l30.055-30.054c15.939-15.939,37.132-24.717,59.673-24.717s43.734,8.778,59.673,24.717
		l30.052,30.052c5.947,5.952,13.858,9.23,22.274,9.23c5.821,0,11.45-1.614,16.323-4.571l12.746,12.746
		c-2.898,4.764-4.569,10.353-4.569,16.325c0,5.972,1.671,11.561,4.569,16.325l-58.372,58.372c-2.929,2.929-2.929,7.677,0,10.606
		c1.464,1.464,3.384,2.197,5.303,2.197s3.839-0.732,5.303-2.197l58.372-58.372c4.764,2.898,10.353,4.569,16.325,4.569
		c17.369,0,31.5-14.131,31.5-31.5c0-5.972-1.671-11.561-4.569-16.325l58.372-58.372c2.929-2.929,2.929-7.677,0-10.606
		C505.875,335.268,501.126,335.268,498.197,338.197z M423.5,71.001c9.098,0,16.5,7.401,16.5,16.5c0,9.098-7.402,16.5-16.5,16.5
		s-16.5-7.402-16.5-16.5C407,78.402,414.402,71.001,423.5,71.001z M71,87.501c0-9.099,7.402-16.5,16.5-16.5s16.5,7.401,16.5,16.5
		c0,9.098-7.402,16.5-16.5,16.5S71,96.598,71,87.501z M87.5,440.001c-9.098,0-16.5-7.402-16.5-16.5c0-9.099,7.402-16.5,16.5-16.5
		s16.5,7.401,16.5,16.5C104,432.598,96.598,440.001,87.5,440.001z M355.835,379.166l-30.055-30.054
		c-16.994-16.994-39.057-27.075-62.78-28.833v-40.777c0-4.143-3.358-7.5-7.5-7.5s-7.5,3.357-7.5,7.5v40.777
		c-23.723,1.758-45.786,11.84-62.78,28.833l-30.057,30.057c-3.113,3.116-7.255,4.833-11.663,4.833c-4.81,0-9.379-2.104-12.535-5.773
		c-5.488-6.38-4.686-16.837,1.788-23.311l29.136-29.136c16.994-16.994,27.075-39.057,28.833-62.78H231.5c4.142,0,7.5-3.358,7.5-7.5
		c0-4.143-3.358-7.5-7.5-7.5h-40.778c-1.758-23.723-11.839-45.787-28.833-62.78l-29.136-29.136
		c-6.474-6.475-7.276-16.932-1.788-23.312c3.156-3.668,7.725-5.772,12.535-5.772c4.408,0,8.55,1.716,11.666,4.834l30.055,30.055
		c16.994,16.994,39.057,27.075,62.78,28.833v40.778c0,4.142,3.358,7.5,7.5,7.5s7.5-3.358,7.5-7.5v-40.778
		c23.723-1.758,45.786-11.84,62.78-28.833l30.057-30.057c3.113-3.116,7.255-4.832,11.663-4.832c4.81,0,9.379,2.104,12.535,5.772
		c5.488,6.38,4.686,16.837-1.788,23.312l-29.136,29.136c-16.994,16.993-27.075,39.057-28.833,62.78H279.5
		c-4.142,0-7.5,3.357-7.5,7.5c0,4.142,3.358,7.5,7.5,7.5h40.778c1.758,23.723,11.839,45.786,28.833,62.78l29.136,29.135
		c6.474,6.475,7.276,16.932,1.788,23.311c-3.156,3.669-7.725,5.773-12.535,5.773C363.093,384.001,358.951,382.284,355.835,379.166z
		 M423.5,440.001c-9.098,0-16.5-7.402-16.5-16.5c0-9.099,7.402-16.5,16.5-16.5s16.5,7.401,16.5,16.5
		C440,432.598,432.598,440.001,423.5,440.001z"/>
	<path d="M423.5,416.001c-1.97,0-3.91,0.8-5.3,2.2c-1.4,1.39-2.2,3.33-2.2,5.3s0.8,3.91,2.2,5.3c1.39,1.4,3.33,2.2,5.3,2.2
		c1.97,0,3.91-0.8,5.3-2.2c1.4-1.39,2.2-3.33,2.2-5.3s-0.8-3.91-2.2-5.3C427.41,416.8,425.47,416.001,423.5,416.001z"/>
	<path d="M423.5,95.001c1.97,0,3.91-0.8,5.3-2.2c1.4-1.39,2.2-3.33,2.2-5.3c0-1.98-0.8-3.91-2.2-5.3c-1.39-1.4-3.33-2.2-5.3-2.2
		c-1.97,0-3.91,0.8-5.3,2.2c-1.4,1.39-2.2,3.32-2.2,5.3c0,1.97,0.8,3.91,2.2,5.3C419.59,94.201,421.53,95.001,423.5,95.001z"/>
	<path d="M87.5,80.001c-1.97,0-3.91,0.8-5.3,2.2c-1.4,1.39-2.2,3.33-2.2,5.3s0.8,3.91,2.2,5.3c1.39,1.4,3.33,2.2,5.3,2.2
		c1.97,0,3.91-0.8,5.3-2.2c1.4-1.39,2.2-3.33,2.2-5.3s-0.8-3.91-2.2-5.3C91.41,80.8,89.47,80.001,87.5,80.001z"/>
</g>
<g>
</g>
<g>
</g>
<g>
</g>
<g>
</g>
<g>
</g>
<g>
</g>
<g>
</g>
<g>
</g>
<g>
</g>
<g>
</g>
<g>
</g>
<g>
</g>
<g>
</g>
<g>
</g>
<g>
</g>
</svg>
