<?xml version="1.0" encoding="iso-8859-1"?>
<svg xmlns="http://www.w3.org/2000/svg">
    <symbol id="drone-symbol" viewBox="0 0 511.001 511.001">
        <g>
            <path d="M87.5,416.001c-1.97,0-3.91,0.8-5.3,2.2c-1.4,1.39-2.2,3.33-2.2,5.3s0.8,3.91,2.2,5.3c1.39,1.4,3.32,2.2,5.3,2.2 c1.97,0,3.91-0.8,5.3-2.2c1.4-1.39,2.2-3.33,2.2-5.3s-0.8-3.91-2.2-5.3C91.41,416.8,89.47,416.001,87.5,416.001z"/>
            <path d="M498.197,338.197l-58.372,58.372c-4.764-2.898-10.353-4.569-16.325-4.569c-5.972,0-11.561,1.67-16.325,4.568
                l-12.758-12.758c7.285-12.232,5.244-28.694-5.564-39.501l-29.136-29.136C343.779,299.235,335,278.042,335,255.501
                c0-22.542,8.778-43.734,24.717-59.674l29.136-29.136c10.808-10.808,12.849-27.27,5.564-39.501l12.758-12.758
                c4.764,2.898,10.353,4.569,16.325,4.569c5.972,0,11.561-1.671,16.325-4.569l58.372,58.372c1.464,1.465,3.384,2.197,5.303,2.197
                s3.839-0.732,5.303-2.197c2.929-2.929,2.929-7.678,0-10.606l-58.372-58.372C453.33,99.062,455,93.472,455,87.501
                c0-17.369-14.131-31.5-31.5-31.5c-5.972,0-11.561,1.67-16.325,4.568L348.804,2.197c-2.928-2.929-7.677-2.929-10.606,0
                s-2.929,7.678,0,10.606l58.372,58.372C393.671,75.939,392,81.528,392,87.501c0,5.972,1.671,11.561,4.569,16.325l-12.746,12.746
                c-4.874-2.957-10.503-4.57-16.323-4.57c-8.417,0-16.327,3.278-22.272,9.228l-30.055,30.055
                c-15.939,15.939-37.132,24.718-59.673,24.718s-43.734-8.778-59.673-24.718l-30.052-30.052c-5.947-5.952-13.858-9.23-22.274-9.23
                c-5.821,0-11.449,1.613-16.323,4.57l-12.746-12.746C117.33,99.062,119,93.472,119,87.501c0-5.972-1.671-11.562-4.569-16.325
                l58.372-58.372c2.929-2.929,2.929-7.678,0-10.606c-2.929-2.929-7.678-2.929-10.606,0l-58.372,58.372
                c-4.764-2.898-10.353-4.568-16.325-4.568c-17.369,0-31.5,14.131-31.5,31.5c0,5.972,1.671,11.561,4.569,16.324L2.197,162.197
                c-2.929,2.929-2.929,7.678,0,10.606C3.661,174.268,5.581,175,7.5,175c1.919,0,3.839-0.732,5.303-2.197l58.372-58.372
                c4.764,2.898,10.353,4.569,16.325,4.569s11.561-1.671,16.325-4.569l12.758,12.758c-7.286,12.232-5.244,28.694,5.564,39.501
                l29.136,29.136C167.222,211.766,176,232.959,176,255.501c0,22.542-8.778,43.734-24.717,59.673l-29.136,29.136
                c-10.807,10.808-12.849,27.269-5.564,39.501l-12.758,12.758c-4.764-2.898-10.353-4.568-16.325-4.568
                c-5.972,0-11.561,1.67-16.325,4.569l-58.372-58.372c-2.929-2.929-7.678-2.929-10.606,0c-2.929,2.929-2.929,7.677,0,10.606
                l58.372,58.372C57.671,411.94,56,417.528,56,423.501c0,17.369,14.131,31.5,31.5,31.5c5.972,0,11.561-1.671,16.324-4.569
                l58.372,58.372c1.464,1.464,3.384,2.197,5.303,2.197s3.839-0.732,5.303-2.197c2.929-2.929,2.929-7.677,0-10.606l-58.372-58.372
                c2.898-4.764,4.569-10.353,4.569-16.325c0-5.972-1.671-11.562-4.569-16.325l12.746-12.745c4.874,2.956,10.503,4.57,16.323,4.57
                c8.417,0,16.327-3.278,22.272-9.229l30.055-30.054c15.939-15.939,37.132-24.717,59.673-24.717s43.734,8.778,59.673,24.717
                l30.052,30.052c5.947,5.952,13.858,9.23,22.274,9.23c5.821,0,11.45-1.614,16.323-4.571l12.746,12.746
                c-2.898,4.764-4.569,10.353-4.569,16.325c0,5.972,1.671,11.561,4.569,16.325l-58.372,58.372c-2.929,2.929-2.929,7.677,0,10.606
                c1.464,1.464,3.384,2.197,5.303,2.197s3.839-0.732,5.303-2.197l58.372-58.372c4.764,2.898,10.353,4.569,16.325,4.569
                c17.369,0,31.5-14.131,31.5-31.5c0-5.972-1.671-11.561-4.569-16.325l58.372-58.372c2.929-2.929,2.929-7.677,0-10.606
                C505.875,335.268,501.126,335.268,498.197,338.197z M423.5,71.001c9.098,0,16.5,7.401,16.5,16.5c0,9.098-7.402,16.5-16.5,16.5
                s-16.5-7.402-16.5-16.5C407,78.402,414.402,71.001,423.5,71.001z M71,87.501c0-9.099,7.402-16.5,16.5-16.5s16.5,7.401,16.5,16.5
                c0,9.098-7.402,16.5-16.5,16.5S71,96.598,71,87.501z M87.5,440.001c-9.098,0-16.5-7.402-16.5-16.5c0-9.099,7.402-16.5,16.5-16.5
                s16.5,7.401,16.5,16.5C104,432.598,96.598,440.001,87.5,440.001z M355.835,379.166l-30.055-30.054
                c-16.994-16.994-39.057-27.075-62.78-28.833v-40.777c0-4.143-3.358-7.5-7.5-7.5s-7.5,3.357-7.5,7.5v40.777
                c-23.723,1.758-45.786,11.84-62.78,28.833l-30.057,30.057c-3.113,3.116-7.255,4.833-11.663,4.833c-4.81,0-9.379-2.104-12.535-5.773
                c-5.488-6.38-4.686-16.837,1.788-23.311l29.136-29.136c16.994-16.994,27.075-39.057,28.833-62.78H231.5c4.142,0,7.5-3.358,7.5-7.5
                c0-4.143-3.358-7.5-7.5-7.5h-40.778c-1.758-23.723-11.839-45.787-28.833-62.78l-29.136-29.136
                c-6.474-6.475-7.276-16.932-1.788-23.312c3.156-3.668,7.725-5.772,12.535-5.772c4.408,0,8.55,1.716,11.666,4.834l30.055,30.055
                c16.994,16.994,39.057,27.075,62.78,28.833v40.778c0,4.142,3.358,7.5,7.5,7.5s7.5-3.358,7.5-7.5v-40.778
                c23.723-1.758,45.786-11.84,62.78-28.833l30.057-30.057c3.113-3.116,7.255-4.832,11.663-4.832c4.81,0,9.379,2.104,12.535,5.772
                c5.488,6.38,4.686,16.837-1.788,23.312l-29.136,29.136c-16.994,16.993-27.075,39.057-28.833,62.78H279.5
                c-4.142,0-7.5,3.357-7.5,7.5c0,4.142,3.358,7.5,7.5,7.5h40.778c1.758,23.723,11.839,45.786,28.833,62.78l29.136,29.135
                c6.474,6.475,7.276,16.932,1.788,23.311c-3.156,3.669-7.725,5.773-12.535,5.773C363.093,384.001,358.951,382.284,355.835,379.166z
                 M423.5,440.001c-9.098,0-16.5-7.402-16.5-16.5c0-9.099,7.402-16.5,16.5-16.5s16.5,7.401,16.5,16.5
                C440,432.598,432.598,440.001,423.5,440.001z"/>
            <path d="M423.5,416.001c-1.97,0-3.91,0.8-5.3,2.2c-1.4,1.39-2.2,3.33-2.2,5.3s0.8,3.91,2.2,5.3c1.39,1.4,3.33,2.2,5.3,2.2
                c1.97,0,3.91-0.8,5.3-2.2c1.4-1.39,2.2-3.33,2.2-5.3s-0.8-3.91-2.2-5.3C427.41,416.8,425.47,416.001,423.5,416.001z"/>
            <path d="M423.5,95.001c1.97,0,3.91-0.8,5.3-2.2c1.4-1.39,2.2-3.33,2.2-5.3c0-1.98-0.8-3.91-2.2-5.3c-1.39-1.4-3.33-2.2-5.3-2.2
                c-1.97,0-3.91,0.8-5.3,2.2c-1.4,1.39-2.2,3.32-2.2,5.3c0,1.97,0.8,3.91,2.2,5.3C419.59,94.201,421.53,95.001,423.5,95.001z"/>
            <path d="M87.5,80.001c-1.97,0-3.91,0.8-5.3,2.2c-1.4,1.39-2.2,3.33-2.2,5.3s0.8,3.91,2.2,5.3c1.39,1.4,3.33,2.2,5.3,2.2
                c1.97,0,3.91-0.8,5.3-2.2c1.4-1.39,2.2-3.33,2.2-5.3s-0.8-3.91-2.2-5.3C91.41,80.8,89.47,80.001,87.5,80.001z"/>
        </g>
    </symbol>

    <symbol id="parcel-symbol" viewBox="0 0 512 512">
        <g>
            <path d="m512 150.625v-75.375c0-8.284-6.716-15-15-15h-482c-8.284 0-15 6.716-15 15v75.375z"/>
            <path d="m225.875 271.125h60.25c8.34 0 15.125-6.785 15.125-15.125s-6.785-15.125-15.125-15.125h-60.25c-8.34 0-15.125 6.785-15.125 15.125s6.785 15.125 15.125 15.125z"/>
            <path d="m30.125 180.625v256.125c0 8.284 6.716 15 15 15h421.75c8.284 0 15-6.716 15-15v-256.125zm195.75 30.25h60.25c24.882 0 45.125 20.243 45.125 45.125s-20.243 45.125-45.125 45.125h-60.25c-24.882 0-45.125-20.243-45.125-45.125s20.243-45.125 45.125-45.125z"/>
        </g>
    </symbol>

<!--    <symbol id="hub-symbol" viewBox="0 0 24 24">-->
<!--        <g transform="translate(0, 24) scale(1 -1)">-->
<!--            <path d="m23.676 7.882-11.25-7.75c-.256-.176-.594-.176-.851 0l-11.25 7.75c-.204.14-.325.371-.325.618v14.5c0 .552.448 1 1 1h2v-12c0-.552.448-1 1-1h16c.552 0 1 .448 1 1v12h2c.552 0 1-.448 1-1v-14.5c0-.247-.121-.478-.324-.618z"/>-->
<!--        </g>-->
<!--    </symbol>-->

    <symbol id="car-symbol" viewBox="0 0 452.001 452.001">
        <path d="M85.44,261.093c-20.734,0-37.542,16.808-37.542,37.542s16.808,37.542,37.542,37.542
				c20.724-0.023,37.519-16.818,37.542-37.542C122.982,277.901,106.174,261.093,85.44,261.093z"/>
        <polygon points="360.94,336.177 360.939,336.177 360.939,336.177"/>
        <path d="M437.143,212.893l-41.844-19.1c-1.426-0.633-2.633-1.675-3.469-2.993L355.57,133
				c-6.753-10.781-18.618-17.283-31.339-17.174H176.88c-11.504-0.035-22.368,5.288-29.39,14.4l-46.631,61.09
				c-1.043,1.396-2.52,2.406-4.2,2.87l-77.934,21.326c-11.13,3.099-18.802,13.271-18.724,24.824v28.5
				c0,14.188,11.089,25.988,25.279,25.988h6.789c2.001-26.366,22.955-47.32,49.321-49.321c29.476-2.237,55.185,19.844,57.422,49.321
				h168.756c2.001-26.366,22.955-47.319,49.321-49.321c29.476-2.237,55.185,19.844,57.422,49.321h12.411
				c14.19,0,25.279-11.8,25.279-25.988v-32.534C452.081,226.256,446.267,217.096,437.143,212.893z"/>
        <path d="M360.94,261.093c-20.734,0-37.542,16.808-37.542,37.542c0,20.734,16.808,37.542,37.541,37.542
				c20.724-0.023,37.519-16.818,37.543-37.542C398.482,277.901,381.673,261.093,360.94,261.093z"/>
    </symbol>

    <symbol id="bus-symbol" viewBox="0 0 452.001 452.001">
        <path d="M41.562,130.891c-12.271,0-22.237,9.946-22.237,22.11c0,12.222,9.966,22.198,22.237,22.198
					c12.154,0,22.051-9.975,22.051-22.198C63.614,140.817,53.716,130.891,41.562,130.891z M41.562,166.747
					c-7.611,0-13.786-6.185-13.786-13.756c0-7.523,6.175-13.639,13.786-13.639c7.484,0,13.6,6.106,13.6,13.639
					C55.162,160.563,49.046,166.747,41.562,166.747z"/>
        <path d="M41.504,145.106c-4.426,0-7.972,3.566-7.972,7.924c0,4.436,3.556,7.943,7.972,7.943
					c4.367,0,7.894-3.498,7.894-7.943C49.398,148.663,45.871,145.106,41.504,145.106z"/>
        <path d="M249.081,81.376H0v73.266h18.856l-0.039-1.593c0-12.496,10.122-22.647,22.745-22.647
					c12.457,0,22.569,10.151,22.569,22.647l-0.039,1.602h105.361l-0.059-1.602c0-12.496,10.19-22.647,22.745-22.647
					c12.457,0,22.628,10.151,22.628,22.647l-0.107,1.602h43.507v-32.945L249.081,81.376z M27.845,87.55v29.408H6.917l0.059-29.447
					L27.845,87.55L27.845,87.55z M70.668,116.92H32.808V87.531l37.859,0.068V116.92z M113.539,116.929H75.66v-29.33l37.879,0.059
					V116.929z M156.401,148.643h-37.859V87.648l37.859,0.166V148.643z M199.243,116.929h-37.879V87.717l37.879,0.098V116.929z
					 M204.196,116.91L204.196,116.91V87.795l41.318,0.078l6.302,29.066L204.196,116.91z"/>
        <rect x="133.9" y="92.006" width="5.989" height="52.495"/>
        <path d="M192.521,132.474c-12.252,0-22.217,9.946-22.217,22.129c0,12.222,9.956,22.188,22.217,22.188
					c12.135,0,22.032-9.966,22.032-22.188C214.553,142.42,204.656,132.474,192.521,132.474z M192.482,168.311
					c-7.562,0-13.747-6.165-13.747-13.717c0-7.523,6.185-13.639,13.747-13.639c7.533,0,13.639,6.126,13.639,13.639
					C206.111,162.175,200.005,168.311,192.482,168.311z"/>
        <path d="M192.482,146.699c-4.445,0-7.982,3.517-7.982,7.933s3.537,7.933,7.982,7.933
					c4.348,0,7.894-3.507,7.894-7.933C200.367,150.246,196.83,146.699,192.482,146.699z"/>
    </symbol>

    <symbol id="address-symbol" viewBox="0 0 463.937 463.937">
        <g><path d="M460.414,216.518l-85.6-73.1c0.1-0.5,0.2-1,0.3-1.6v-95.6c-0.1-5.7-4.6-10.3-10.3-10.5h-47.8c-5.5,0-10,4.9-10,10.5v39.6
        l-68.5-58.4c-3.7-3.2-9.2-3.2-13,0l-221.9,189c-4.3,3.5-4.8,9.8-1.3,14.1s9.8,4.8,14.1,1.3c0.1-0.1,0.1-0.1,0.2-0.2l215.4-183.4
        l77.1,65.7l46.1,39.2l92.3,78.6c4.2,3.6,10.5,3.1,14.1-1.1C465.114,226.418,464.614,220.118,460.414,216.518z M355.014,126.518
        l-28-23.6v-47.1h28V126.518z"/></g>
        <g><path d="M416.314,236.718l-28.1-24l-149.7-127.9c-3.7-3.2-9.2-3.2-13,0l-149.7,127.9l-28.1,24c-4.2,3.6-4.7,9.9-1.1,14.1
        c3.5,4.2,9.7,4.7,13.8,1.2l0.1-0.1l12.5-10.8v187.5c0.1,5.6,4.7,10.2,10.3,10.3h297.3c5.6-0.1,10.2-4.6,10.3-10.3v-187.5
        l12.5,10.8c1.8,1.5,4,2.4,6.4,2.4c2.9,0,5.7-1.3,7.6-3.5C421.114,246.518,420.514,240.218,416.314,236.718z M272.014,418.818h-80
        v-108h80V418.818z M292.014,418.818v-117.7c0-5.5-4.1-10.3-9.6-10.3h-100.8c-5.5,0-9.6,4.8-9.6,10.3v117.7h-79v-194.8l139-118.4
        l139,118.4v194.8H292.014z"/></g>
    </symbol>

    <symbol id="hub-symbol" viewBox="0 0 512 512">
        <g><path d="M507.785,146.242L260.318,1.175c-2.603-1.519-5.803-1.57-8.439-0.111L4.412,137.598C1.69,139.091,0,141.958,0,145.064
        v358.4c0,4.719,3.823,8.533,8.533,8.533H51.2c4.71,0,8.533-3.814,8.533-8.533V204.798h392.533v298.667
        c0,4.719,3.814,8.533,8.533,8.533h42.667c4.719,0,8.533-3.814,8.533-8.533V153.598C512,150.568,510.396,147.769,507.785,146.242z
         M494.933,494.931h-25.6V196.264c0-4.71-3.814-8.533-8.533-8.533H51.2c-4.71,0-8.533,3.823-8.533,8.533v298.667h-25.6V150.099
        L255.872,18.344l239.061,140.143V494.931z"/></g>
        <g><path d="M426.667,392.531h-102.4c-4.719,0-8.533,3.814-8.533,8.533v102.4c0,4.719,3.814,8.533,8.533,8.533h102.4
        c4.719,0,8.533-3.814,8.533-8.533v-102.4C435.2,396.345,431.386,392.531,426.667,392.531z M418.133,494.931H332.8v-85.333h85.333
        V494.931z"/></g>
        <g><path d="M384,401.064v25.6h-17.067v-25.6h-17.067v34.133c0,4.719,3.814,8.533,8.533,8.533h34.133c4.719,0,8.533-3.814,8.533-8.533
        v-34.133H384z"/></g>
        <g><path d="M324.267,392.531h-102.4c-4.71,0-8.533,3.814-8.533,8.533v102.4c0,4.719,3.823,8.533,8.533,8.533h102.4
        c4.719,0,8.533-3.814,8.533-8.533v-102.4C332.8,396.345,328.986,392.531,324.267,392.531z M315.733,494.931H230.4v-85.333h85.333
        V494.931z"/></g>
        <g><path d="M281.6,401.064v25.6h-17.067v-25.6h-17.067v34.133c0,4.719,3.823,8.533,8.533,8.533h34.133
        c4.719,0,8.533-3.814,8.533-8.533v-34.133H281.6z"/></g>
        <g><path d="M426.667,290.131h-102.4c-4.719,0-8.533,3.814-8.533,8.533v102.4c0,4.719,3.814,8.533,8.533,8.533h102.4
        c4.719,0,8.533-3.814,8.533-8.533v-102.4C435.2,293.945,431.386,290.131,426.667,290.131z M418.133,392.531H332.8v-85.333h85.333
        V392.531z"/></g>
        <g><path d="M384,298.664v25.6h-17.067v-25.6h-17.067v34.133c0,4.719,3.814,8.533,8.533,8.533h34.133c4.719,0,8.533-3.814,8.533-8.533
        v-34.133H384z"/></g>

        <g><rect x="51.2" y="255.998" width="409.6" height="17.067"/></g>
        <g><rect x="51.2" y="221.864" width="409.6" height="17.067"/></g>

        <g><path d="M298.667,119.464h-85.333c-4.71,0-8.533,3.823-8.533,8.533v34.133c0,4.71,3.823,8.533,8.533,8.533h85.333
        c4.719,0,8.533-3.823,8.533-8.533v-34.133C307.2,123.287,303.386,119.464,298.667,119.464z M290.133,153.598h-68.267v-17.067
        h68.267V153.598z"/></g>
    </symbol>
</svg>
